<svg width="64" height="64" viewBox="0 0 64 64" fill="none" xmlns="http://www.w3.org/2000/svg">
  <rect x="8" y="8" width="48" height="48" rx="14" fill="#8E8BED" fill-opacity="0.28"/>
  <path d="M22 40V24H28.2C31.7 24 34 25.9 34 29C34 32.1 31.7 34 28.2 34H25.2V40H22ZM25.2 31.2H28C29.8 31.2 30.8 30.3 30.8 29C30.8 27.7 29.8 26.8 28 26.8H25.2V31.2Z" fill="#C8FF00"/>
  <circle cx="42" cy="28" r="5" stroke="#C8FF00" stroke-width="2.5"/>
  <path d="M36 40C36 36.7 38.7 34 42 34C45.3 34 48 36.7 48 40" stroke="#C8FF00" stroke-width="2.5" stroke-linecap="round"/>
</svg>
