<svg width="117" height="66" viewBox="0 0 117 66" fill="none" xmlns="http://www.w3.org/2000/svg">
<path d="M50.2056 43.9309C50.2056 45.0064 49.3336 45.8784 48.2581 45.8784C47.1825 45.8784 46.3105 45.0064 46.3105 43.9309V30.9475C46.3105 29.8719 47.1825 29 48.2581 29C49.3336 29 50.2056 29.8719 50.2056 30.9475V43.9309Z" fill="#8E8BED"/>
<path d="M56.6972 34.1933V43.9309C56.6972 45.0064 55.8253 45.8784 54.7497 45.8784C53.6742 45.8784 52.8022 45.0064 52.8022 43.9309V34.1933C52.8022 32.7565 53.3086 31.5318 54.3213 30.5191C55.334 29.5064 56.5587 29 57.9956 29C60.0389 29 62.4439 29 64.4873 29C65.9241 29 67.1488 29.5064 68.1615 30.5191C69.1742 31.5318 69.6806 32.7565 69.6806 34.1933V43.9309C69.6806 45.0064 68.8087 45.8784 67.7331 45.8784C66.6575 45.8784 65.7856 45.0064 65.7856 43.9309V34.1933C65.7856 33.8385 65.6558 33.5355 65.3961 33.2845C65.1451 33.0248 64.8421 32.895 64.4873 32.895C64.1324 32.895 63.8251 33.0248 63.5654 33.2845C63.3144 33.5355 63.1889 33.8385 63.1889 34.1933L63.304 43.9079C63.3169 44.9924 62.4413 45.8784 61.3568 45.8784C60.2903 45.8784 59.4222 45.0205 59.4095 43.9541L59.2939 34.1933C59.2939 33.8385 59.1641 33.5355 58.9044 33.2845C58.6534 33.0248 58.3505 32.895 57.9956 32.895C57.6407 32.895 57.3334 33.0248 57.0738 33.2845C56.8227 33.5355 56.6972 33.8385 56.6972 34.1933Z" fill="#8E8BED"/>
<path d="M80.0673 31.8743H77.4706C77.1157 31.8743 76.8085 32.0041 76.5488 32.2638C76.2978 32.5148 76.1723 32.8178 76.1723 33.1726V34.4033C76.1723 35.8374 77.3349 37 78.769 37C80.2031 37 81.3656 35.8374 81.3656 34.4033V33.1726C81.3656 32.8178 81.2358 32.5148 80.9761 32.2638C80.7251 32.0041 80.4222 31.8743 80.0673 31.8743ZM77.4706 29H80.0673C81.5041 29 82.7289 29.5064 83.7416 30.5191C84.7543 31.5318 85.2606 32.7565 85.2606 34.1933V34.8425C85.2606 37.3522 83.2261 39.3867 80.7165 39.3867H77.4706C76.7536 39.3867 76.1723 39.968 76.1723 40.685C76.1723 41.0399 76.2978 41.3472 76.5488 41.6068C76.8085 41.8579 77.1157 41.9834 77.4706 41.9834H80.0673C80.4222 41.9834 80.7251 41.8579 80.9761 41.6068C81.3778 41.2051 81.8262 40.685 82.3942 40.685H83.3131C84.3887 40.685 85.3079 41.5884 84.9173 42.5906C84.6647 43.2385 84.2728 43.8281 83.7416 44.3593C82.7289 45.372 81.5041 45.8784 80.0673 45.8784H77.4706C76.0338 45.8784 74.809 45.372 73.7963 44.3593C72.7836 43.3466 72.2773 42.1219 72.2773 40.685V34.1933C72.2773 32.7565 72.7836 31.5318 73.7963 30.5191C74.809 29.5064 76.0338 29 77.4706 29Z" fill="#8E8BED"/>
<path d="M91.7523 34.1933V43.9309C91.7523 45.0064 90.8804 45.8784 89.8048 45.8784C88.7292 45.8784 87.8573 45.0064 87.8573 43.9309V34.1933C87.8573 32.7565 88.3637 31.5318 89.3764 30.5191C90.3891 29.5064 91.6138 29 93.0507 29H95.6473C97.0841 29 98.3089 29.5064 99.3216 30.5191C100.334 31.5318 100.841 32.7522 100.841 34.1804V43.9309C100.841 45.0064 99.9687 45.8784 98.8932 45.8784C97.8176 45.8784 96.9457 45.0064 96.9457 43.9309V34.1933C96.9457 33.8385 96.8158 33.5355 96.5562 33.2845C96.3051 33.0248 96.0022 32.895 95.6473 32.895H93.0507C92.6958 32.895 92.3885 33.0248 92.1288 33.2845C91.8778 33.5355 91.7523 33.8385 91.7523 34.1933Z" fill="#8E8BED"/>
<path d="M108.631 41.9834H111.227C111.582 41.9834 111.885 41.8579 112.136 41.6068C112.396 41.3472 112.526 41.0399 112.526 40.685C112.526 39.968 111.944 39.3867 111.227 39.3867H108.631C108.276 39.3867 107.969 39.5165 107.709 39.7762C107.458 40.0272 107.332 40.3301 107.332 40.685C107.332 41.0399 107.458 41.3472 107.709 41.6068C107.969 41.8579 108.276 41.9834 108.631 41.9834ZM111.227 45.8784H108.631C107.194 45.8784 105.969 45.372 104.956 44.3593C103.944 43.3466 103.437 42.1219 103.437 40.685C103.437 39.2482 103.944 38.0234 104.956 37.0107C105.969 35.998 107.194 35.4917 108.631 35.4917H111.227C111.944 35.4917 112.526 34.9104 112.526 34.1933C112.526 33.8385 112.396 33.5355 112.136 33.2845C111.885 33.0248 111.582 32.895 111.227 32.895H108.631C108.276 32.895 107.969 33.0248 107.709 33.2845C107.314 33.6794 106.88 34.1933 106.321 34.1933H105.385C104.309 34.1933 103.39 33.2899 103.781 32.2878C104.033 31.6399 104.425 31.0503 104.956 30.5191C105.969 29.5064 107.194 29 108.631 29H111.227C112.664 29 113.889 29.5064 114.902 30.5191C115.914 31.5318 116.421 32.7565 116.421 34.1933V40.685C116.421 42.1219 115.914 43.3466 114.902 44.3593C113.889 45.372 112.664 45.8784 111.227 45.8784Z" fill="#8E8BED"/>
<g filter="url(#filter0_f_1633_27047)">
<path d="M27.7472 40.7073C25.9426 41.2432 24.729 42.4241 23.6858 43.8459L22.4457 45.5372C22.1823 45.8955 21.3494 46.0731 20.9646 45.9721C20.5257 45.8567 19.8827 45.3433 19.8204 44.8656L19.5244 42.5956L19.5703 26.444C19.5785 23.4299 19.6734 20.5577 20.1889 17.6395C20.5247 15.742 21.3147 13.9476 22.8233 12.7452C25.2546 10.8079 28.8526 10.513 31.5166 12.1522C32.9446 13.031 33.9459 14.3671 34.8594 15.7696C37.504 19.8299 39.2484 24.3108 40.1803 29.1101C41.1398 34.0493 41.5991 38.9292 41.5654 43.9235C41.5603 44.7186 40.9254 45.5179 40.3957 45.6791C39.6465 45.9067 38.7299 45.527 38.3941 44.738L37.649 42.9865C37.1335 41.7749 36.1169 40.9196 34.8288 40.6052C32.5138 40.0418 30.1162 40.002 27.7451 40.7063L27.7472 40.7073ZM35.0043 38.0688C35.8883 38.2076 37.0529 37.9575 37.5296 37.3053C37.996 36.6674 38.1308 35.7181 38.1022 34.8822C37.896 28.7447 36.1434 22.8471 33.0701 17.5629C31.4115 14.7121 28.7913 12.9065 25.8946 14.116C22.7315 15.4368 22.5018 20.8802 22.412 24.5067C22.3518 26.9381 22.3354 29.2806 22.8356 31.6129C23.4357 34.4065 25.3924 36.5571 28.2249 37.0032L35.0043 38.0698V38.0688Z" fill="#8E8BED"/>
<path d="M27.7472 40.7073C25.9426 41.2432 24.729 42.4241 23.6858 43.8459L22.4457 45.5372C22.1823 45.8955 21.3494 46.0731 20.9646 45.9721C20.5257 45.8567 19.8827 45.3433 19.8204 44.8656L19.5244 42.5956L19.5703 26.444C19.5785 23.4299 19.6734 20.5577 20.1889 17.6395C20.5247 15.742 21.3147 13.9476 22.8233 12.7452C25.2546 10.8079 28.8526 10.513 31.5166 12.1522C32.9446 13.031 33.9459 14.3671 34.8594 15.7696C37.504 19.8299 39.2484 24.3108 40.1803 29.1101C41.1398 34.0493 41.5991 38.9292 41.5654 43.9235C41.5603 44.7186 40.9254 45.5179 40.3957 45.6791C39.6465 45.9067 38.7299 45.527 38.3941 44.738L37.649 42.9865C37.1335 41.7749 36.1169 40.9196 34.8288 40.6052C32.5138 40.0418 30.1162 40.002 27.7451 40.7063L27.7472 40.7073ZM35.0043 38.0688C35.8883 38.2076 37.0529 37.9575 37.5296 37.3053C37.996 36.6674 38.1308 35.7181 38.1022 34.8822C37.896 28.7447 36.1434 22.8471 33.0701 17.5629C31.4115 14.7121 28.7913 12.9065 25.8946 14.116C22.7315 15.4368 22.5018 20.8802 22.412 24.5067C22.3518 26.9381 22.3354 29.2806 22.8356 31.6129C23.4357 34.4065 25.3924 36.5571 28.2249 37.0032L35.0043 38.0698V38.0688Z" stroke="#8E8BED" stroke-width="2.44968" stroke-miterlimit="10"/>
</g>
<path d="M27.7472 40.7073C25.9426 41.2432 24.729 42.4241 23.6858 43.8459L22.4457 45.5372C22.1823 45.8955 21.3494 46.0731 20.9646 45.9721C20.5257 45.8567 19.8827 45.3433 19.8204 44.8656L19.5244 42.5956L19.5703 26.444C19.5785 23.4299 19.6734 20.5577 20.1889 17.6395C20.5247 15.742 21.3147 13.9476 22.8233 12.7452C25.2546 10.8079 28.8526 10.513 31.5166 12.1522C32.9446 13.031 33.9459 14.3671 34.8594 15.7696C37.504 19.8299 39.2484 24.3108 40.1803 29.1101C41.1398 34.0493 41.5991 38.9292 41.5654 43.9235C41.5603 44.7186 40.9254 45.5179 40.3957 45.6791C39.6465 45.9067 38.7299 45.527 38.3941 44.738L37.649 42.9865C37.1335 41.7749 36.1169 40.9196 34.8288 40.6052C32.5138 40.0418 30.1162 40.002 27.7451 40.7063L27.7472 40.7073ZM35.0043 38.0688C35.8883 38.2076 37.0529 37.9575 37.5296 37.3053C37.996 36.6674 38.1308 35.7181 38.1022 34.8822C37.896 28.7447 36.1434 22.8471 33.0701 17.5629C31.4115 14.7121 28.7913 12.9065 25.8946 14.116C22.7315 15.4368 22.5018 20.8802 22.412 24.5067C22.3518 26.9381 22.3354 29.2806 22.8356 31.6129C23.4357 34.4065 25.3924 36.5571 28.2249 37.0032L35.0043 38.0698V38.0688Z" fill="#8E8BED"/>
<g filter="url(#filter1_f_1633_27047)">
<path d="M19.6243 6.44936L20.3408 7.37616C20.4541 7.52314 20.5858 7.65379 20.7317 7.76709L21.6585 8.48362C22.2577 8.94702 22.2577 9.85033 21.6585 10.3137L20.7317 11.0303C20.5848 11.1436 20.4541 11.2752 20.3408 11.4212L19.6243 12.348C19.1609 12.9471 18.2576 12.9471 17.7942 12.348L17.0776 11.4212C16.9643 11.2742 16.8327 11.1436 16.6867 11.0303L15.7599 10.3137C15.1608 9.85033 15.1608 8.94702 15.7599 8.48362L16.6867 7.76709C16.8337 7.65379 16.9643 7.52212 17.0776 7.37616L17.7942 6.44936C18.2576 5.85021 19.1609 5.85021 19.6243 6.44936Z" fill="#C8FF00"/>
</g>
<path d="M20.3875 5.52887L21.2308 6.61964C21.3642 6.79263 21.5191 6.94639 21.6909 7.07974L22.7817 7.92304C23.4868 8.46843 23.4868 9.53157 22.7817 10.077L21.6909 10.9203C21.5179 11.0536 21.3642 11.2086 21.2308 11.3804L20.3875 12.4711C19.8421 13.1763 18.779 13.1763 18.2336 12.4711L17.3903 11.3804C17.2569 11.2074 17.102 11.0536 16.9302 10.9203L15.8394 10.077C15.1343 9.53157 15.1343 8.46843 15.8394 7.92304L16.9302 7.07974C17.1032 6.94639 17.2569 6.79143 17.3903 6.61964L18.2336 5.52887C18.779 4.82371 19.8421 4.82371 20.3875 5.52887Z" fill="#C8FF00"/>
<defs>
<filter id="filter0_f_1633_27047" x="-0.00019455" y="-8.43769" width="61.0922" height="73.9623" filterUnits="userSpaceOnUse" color-interpolation-filters="sRGB">
<feFlood flood-opacity="0" result="BackgroundImageFix"/>
<feBlend mode="normal" in="SourceGraphic" in2="BackgroundImageFix" result="shape"/>
<feGaussianBlur stdDeviation="9.15" result="effect1_foregroundBlur_1633_27047"/>
</filter>
<filter id="filter1_f_1633_27047" x="11.0105" y="1.7" width="15.3969" height="15.3969" filterUnits="userSpaceOnUse" color-interpolation-filters="sRGB">
<feFlood flood-opacity="0" result="BackgroundImageFix"/>
<feBlend mode="normal" in="SourceGraphic" in2="BackgroundImageFix" result="shape"/>
<feGaussianBlur stdDeviation="2.15" result="effect1_foregroundBlur_1633_27047"/>
</filter>
</defs>
</svg>
